<?xml version="1.0" encoding="utf-8"?>
<!-- Generator: Adobe Illustrator 16.0.0, SVG Export Plug-In . SVG Version: 6.00 Build 0)  -->
<!DOCTYPE svg PUBLIC "-//W3C//DTD SVG 1.1//EN" "http://www.w3.org/Graphics/SVG/1.1/DTD/svg11.dtd">
<svg version="1.1" id="Layer_1" xmlns="http://www.w3.org/2000/svg" xmlns:xlink="http://www.w3.org/1999/xlink" x="0px" y="0px"
	 width="200px" height="200px" viewBox="0 0 200 200" enable-background="new 0 0 200 200" xml:space="preserve">
<g>
	<polygon fill="#3D3D3D" points="158.667,132.167 41.333,132.167 41.333,40.5 74.665,40.5 74.665,45.5 46.333,45.5 46.333,127.167 
		153.667,127.167 153.667,45.5 124.331,45.5 124.331,40.5 158.667,40.5 	"/>
</g>
<g>
	<path fill="#3D3D3D" d="M68.302,135.25l-17.116,46.039c-0.577,1.553,0.214,3.279,1.767,3.856c0.345,0.129,0.698,0.189,1.045,0.189
		c1.218,0,2.363-0.747,2.812-1.956l17.892-48.129H68.302z"/>
</g>
<g>
	<path fill="#3D3D3D" d="M132.564,135.25l17.115,46.039c0.577,1.553-0.214,3.279-1.767,3.856c-0.345,0.129-0.698,0.189-1.045,0.189
		c-1.218,0-2.363-0.747-2.812-1.956l-17.892-48.129H132.564z"/>
</g>
<g>
	<path fill="#3D3D3D" d="M133.875,151.5H66.577c-1.657,0-3-1.343-3-3s1.343-3,3-3h67.298c1.657,0,3,1.343,3,3
		S135.532,151.5,133.875,151.5z"/>
</g>
<g>
	<g>
		<rect x="97" y="135.25" fill="#3D3D3D" width="6" height="13.75"/>
	</g>
</g>
<path fill="#3D3D3D" d="M100.25,48.667H88.75c-7.334,0-8.667-5.667-8.667-5.667V30.333H99.75h20.167V43c0,0-1.333,5.667-8.667,5.667
	H100.25z"/>
<g>
	<path fill="#3D3D3D" d="M100,34.833c-2.485,0-4.5-2.015-4.5-4.5V18.667c0-2.485,2.015-4.5,4.5-4.5s4.5,2.015,4.5,4.5v11.667
		C104.5,32.819,102.485,34.833,100,34.833z"/>
</g>
<g>
	<path fill="#3D3D3D" d="M78.881,94.555l26.635-26.634c0.777-0.778,2.051-0.777,2.828,0l10.488,10.488
		c0.778,0.778,0.778,2.051,0,2.829l-26.634,26.634"/>
	<path fill="#3D3D3D" d="M74.874,114.412c0,0-1.591,0.885-2.387,0.088c-0.751-0.75,0-2.475,0-2.475l6.394-17.471l13.317,13.316
		L74.874,114.412z"/>
	<polygon fill="#FFFFFF" points="80.798,96.471 77.128,105.971 80.9,109.744 90.461,106.135 90.077,101.33 85.54,101.213 
		85.393,96.646 	"/>
	<g>
		<path fill="#FFFFFF" d="M89.528,92.92c-0.256,0-0.512-0.098-0.707-0.293c-0.391-0.391-0.391-1.023,0-1.414l17.99-17.99
			c0.391-0.391,1.023-0.391,1.414,0s0.391,1.023,0,1.414l-17.99,17.99C90.04,92.823,89.784,92.92,89.528,92.92z"/>
	</g>
	<path fill="#3D3D3D" d="M122.31,64.444l4.742,4.743c1.106,1.106,1.081,2.751-0.224,4.057l-4.542,4.542
		c-0.408,0.408-1.062,0.424-1.45,0.035l-5.951-5.952l-5.952-5.952c-0.389-0.389-0.373-1.041,0.035-1.449l4.543-4.542
		c1.305-1.305,2.95-1.33,4.057-0.224L122.31,64.444z"/>
</g>
</svg>
